<svg id="Layer_1" data-name="Layer 1" xmlns="http://www.w3.org/2000/svg" viewBox="0 0 640 399.59"><defs><style>.cls-1,.cls-2{fill:none;}.cls-1{stroke:#000;stroke-miterlimit:10;}.cls-3{fill:#4fff3f;}</style></defs><path class="cls-1" d="M268.45,291.88" transform="translate(0 -79.54)"/><path class="cls-1" d="M363.26,253.74" transform="translate(0 -79.54)"/><path class="cls-1" d="M354.54,188.35" transform="translate(0 -79.54)"/><path class="cls-1" d="M376.88,239" transform="translate(0 -79.54)"/><path class="cls-1" d="M279.89,72.29" transform="translate(0 -79.54)"/><polyline class="cls-2" points="164.05 73.71 81.33 261.91 24.83 390.46"/><polyline class="cls-2" points="618.46 76.96 535.75 265.15 479.25 393.7"/><polyline points="529.75 185.49 640 185.49 627.62 213.65 619.41 232.33 530.95 231.53"/><path d="M188.67,365H21L8.91,392.49,0,412.29H188.67Z" transform="translate(0 -79.54)"/><polyline points="182 131.51 181.78 81.23 110.75 81.23 88.66 131.51"/><path d="M182.17,96.47c.11-2.13.42-8.21,4.69-12.31.95-.9,4-3.58,10.55-4.1,10.79-.86,91.12-.63,200.42.59A171.9,171.9,0,0,1,437.67,93a183,183,0,0,1,72.08,59.19c19.33,27.07,25.84,52.68,28.72,64.46,2.12,8.68,3.65,26.4,4.55,43.37.93,17.37,1.18,34,.72,39.26a144.35,144.35,0,0,1-2.34,39.26c-3.93,19.71-11,33.56-16.41,43.95a195.35,195.35,0,0,1-27,39.26,172,172,0,0,1-29.3,27,163.44,163.44,0,0,1-36.33,19.92,156.74,156.74,0,0,1-43.36,10l-192.22.58a17.62,17.62,0,0,1-10.54-7,17,17,0,0,1-2.93-8.79C182.08,258.07,181.59,107.92,182.17,96.47Z" transform="translate(0 -79.54)"/><path class="cls-3" d="M243.54,418.6c-.72-123-1.13-223-1.15-278.52,35.46,0,88.33.37,149.16,1A111.66,111.66,0,0,1,413,148.2a122.48,122.48,0,0,1,47.59,39.14c12.92,18.09,17.14,35.28,19.17,43.59.35,1.61,1.83,11.5,2.94,32.32.83,15.73.94,28.13.81,31.31l-.38,4.42.38,5a83.69,83.69,0,0,1-1.36,22.8c-2.32,11.67-6.61,19.91-10.75,27.87a134.7,134.7,0,0,1-18.61,27.11,112.86,112.86,0,0,1-19.41,18,103.77,103.77,0,0,1-22.73,12.55,96,96,0,0,1-24.48,5.9Z" transform="translate(0 -79.54)"/></svg>