<svg id="Layer_1" data-name="Layer 1" xmlns="http://www.w3.org/2000/svg" viewBox="0 0 640 399.71"><defs><style>.cls-1,.cls-2{fill:none;}.cls-1{stroke:#000;stroke-miterlimit:10;}.cls-3{fill:#87fa61;}</style></defs><path class="cls-1" d="M268.45,212.34" transform="translate(0 0)"/><path class="cls-1" d="M363.26,174.2" transform="translate(0 0)"/><path class="cls-1" d="M354.54,108.81" transform="translate(0 0)"/><path class="cls-1" d="M376.88,159.46" transform="translate(0 0)"/><path class="cls-1" d="M279.89-7.25" transform="translate(0 0)"/><polyline class="cls-2" points="164.05 73.7 81.33 261.9 24.83 390.45"/><polyline class="cls-2" points="618.46 76.95 535.75 265.14 479.25 393.69"/><polyline class="cls-3" points="529.75 185.49 640 185.49 627.62 213.65 619.41 232.32 530.95 231.53"/><path class="cls-3" d="M188.67,285.46H21L8.91,313,0,332.75H188.67Z" transform="translate(0 0)"/><polyline class="cls-3" points="182 131.5 181.78 81.22 110.75 81.22 88.66 131.5"/><path class="cls-3" d="M543.74,219.74c.46-5.26.21-21.89-.72-39.26-.9-17-2.43-34.69-4.55-43.37-2.88-11.78-9.39-37.39-28.72-64.46a183,183,0,0,0-72.08-59.19A171.66,171.66,0,0,0,397.83,1.11C288.53-.11,208.2-.34,197.41.52c-6.55.52-9.6,3.2-10.55,4.1-4.27,4.1-4.58,10.18-4.69,12.31-.58,11.45-.09,161.6,1.14,367a17,17,0,0,0,2.93,8.79,17.63,17.63,0,0,0,10.54,7L389,399.13a156.46,156.46,0,0,0,43.36-10,163.54,163.54,0,0,0,36.33-19.92,172.07,172.07,0,0,0,29.3-27A195.2,195.2,0,0,0,525,303c5.41-10.39,12.48-24.24,16.41-43.95A144.45,144.45,0,0,0,543.74,219.74Zm-61.59,27.5c-2.32,11.67-6.61,19.91-10.75,27.87a134.47,134.47,0,0,1-18.61,27.11,113.05,113.05,0,0,1-19.41,18,103.92,103.92,0,0,1-22.73,12.55,96.07,96.07,0,0,1-24.48,5.9l-142.63.39c-.72-123-1.13-223-1.15-278.52,35.46,0,88.33.37,149.16,1A111.76,111.76,0,0,1,413,68.66a122.49,122.49,0,0,1,47.59,39.14c12.92,18.09,17.14,35.28,19.17,43.59.35,1.61,1.83,11.5,2.94,32.32.83,15.73.94,28.13.81,31.31l-.38,4.42.38,5A83.83,83.83,0,0,1,482.15,247.24Z" transform="translate(0 0)"/></svg>